<?xml version="1.0" standalone="no"?>
<!DOCTYPE svg PUBLIC "-//W3C//DTD SVG 20010904//EN"
 "http://www.w3.org/TR/2001/REC-SVG-20010904/DTD/svg10.dtd">
<svg version="1.0" xmlns="http://www.w3.org/2000/svg"
 width="512.000000pt" height="512.000000pt" viewBox="0 0 512.000000 512.000000"
 preserveAspectRatio="xMidYMid meet">

<g transform="translate(0.000000,512.000000) scale(0.100000,-0.100000)"
fill="#000000" stroke="none">
<path d="M1910 5105 c-222 -28 -428 -89 -625 -184 -559 -272 -949 -776 -1081
-1394 -22 -103 -27 -156 -31 -345 l-5 -223 -37 -18 c-43 -23 -82 -63 -107
-111 -23 -44 -33 -271 -14 -333 18 -61 54 -109 110 -145 l50 -33 0 -589 0
-589 25 -78 c56 -178 190 -312 375 -376 64 -22 73 -22 793 -27 l727 -5 -115
-123 c-63 -68 -123 -138 -132 -155 -25 -49 -29 -158 -8 -214 52 -137 221 -201
352 -134 23 11 96 78 165 152 l125 132 75 -57 c152 -114 302 -184 493 -229 74
-17 120 -21 265 -21 162 1 183 3 293 32 223 58 414 168 577 332 235 236 360
537 360 871 0 307 -104 572 -331 842 l-31 37 38 43 c98 108 467 497 473 497 3
0 12 -9 18 -19 7 -11 34 -32 60 -48 40 -24 59 -28 119 -28 61 0 77 4 120 30
30 19 60 49 79 80 27 44 30 56 30 134 0 78 -4 93 -36 161 -113 235 -387 319
-613 186 -24 -14 -91 -75 -148 -135 l-103 -110 -42 26 -43 25 0 128 c0 340
-65 632 -205 917 -372 759 -1184 1201 -2015 1098z m559 -185 c625 -114 1152
-556 1374 -1150 75 -202 106 -365 114 -612 l6 -178 -80 0 -80 0 -6 198 c-4
159 -10 218 -30 307 -147 651 -634 1133 -1290 1277 -90 20 -129 23 -332 22
-199 0 -243 -3 -329 -22 -376 -84 -705 -280 -938 -561 -261 -314 -388 -676
-388 -1106 l0 -115 -76 0 -76 0 4 198 c4 150 10 223 27 306 159 780 786 1358
1581 1456 119 14 388 4 519 -20z m-8 -329 c429 -99 793 -375 993 -751 47 -88
109 -241 121 -298 6 -31 5 -30 -52 29 -123 130 -302 236 -473 280 -286 73
-626 2 -846 -177 l-55 -45 -67 51 c-188 141 -412 209 -645 197 -252 -13 -471
-110 -649 -288 -43 -43 -78 -76 -78 -75 0 26 65 190 115 291 209 422 607 716
1080 800 119 21 441 13 556 -14z m-909 -1228 l308 -308 -37 -37 c-33 -34 -42
-38 -88 -38 l-50 0 -310 310 -309 309 74 35 c41 20 82 35 90 36 8 0 153 -138
322 -307z m1596 272 c40 -19 72 -38 72 -42 0 -5 -136 -144 -303 -311 l-303
-303 -70 3 -69 3 -6 50 -7 50 292 293 c160 160 298 292 306 292 9 0 48 -16 88
-35z m-988 -274 c0 -4 -41 -47 -90 -96 l-90 -90 -62 63 -63 62 95 96 95 95 58
-62 c31 -34 57 -65 57 -68z m-1325 -271 l110 -110 -139 0 -138 0 6 38 c6 32
47 182 50 182 1 0 51 -49 111 -110z m2767 6 c32 -124 40 -116 -119 -116 l-138
0 110 110 c123 124 116 124 147 6z m1179 -58 c88 -26 169 -134 169 -227 0 -55
-21 -81 -65 -81 -37 0 -48 11 -90 89 -32 60 -63 79 -108 67 -18 -4 -263 -258
-744 -771 l-718 -764 -65 64 -64 65 36 37 c20 21 340 362 712 758 743 791 726
775 838 775 34 0 78 -5 99 -12z m-3909 -245 c9 -10 63 -84 122 -165 l106 -148
-440 0 -441 0 -24 25 c-24 23 -25 30 -25 137 1 124 8 143 57 158 15 4 163 9
329 9 275 1 302 -1 316 -16z m1878 12 c0 -3 -81 -167 -180 -365 -144 -288
-194 -378 -251 -452 -82 -108 -168 -277 -202 -398 -14 -46 -31 -89 -39 -94
-40 -25 -57 -4 -527 647 -256 354 -467 649 -469 655 -3 9 207 12 832 12 460 0
836 -2 836 -5z m1330 -11 c8 -8 -36 -61 -167 -200 l-178 -189 -80 23 c-295 85
-618 60 -880 -68 -33 -16 -61 -27 -63 -26 -2 2 50 110 115 240 l118 236 562
-2 c397 -2 565 -6 573 -14z m-2545 -916 c171 -238 328 -452 350 -477 44 -48
103 -80 150 -81 l30 0 -3 -56 c-7 -99 29 -329 63 -416 7 -17 -31 -18 -717 -18
-632 0 -731 2 -779 16 -146 43 -260 170 -289 324 -6 31 -10 273 -10 596 l0
544 448 0 447 -1 310 -431z m1998 408 c32 -7 61 -17 65 -20 3 -4 -28 -40 -69
-81 l-74 -75 -100 101 -100 101 110 -6 c61 -3 136 -12 168 -20z m-334 -150
l144 -144 -31 -39 c-16 -21 -44 -51 -61 -68 l-32 -29 -179 179 c-99 98 -178
180 -176 182 5 6 170 63 181 63 6 0 75 -65 154 -144z m-159 -471 l-65 -65
-204 204 c-231 231 -220 205 -121 283 l55 43 200 -200 200 -200 -65 -65z
m1056 293 c17 -18 45 -53 64 -76 l33 -44 -364 -364 -364 -364 -57 57 c-32 32
-58 61 -58 66 0 10 700 757 710 757 3 0 20 -15 36 -32z m-166 -1588 c-13 -10
-49 -33 -78 -51 l-54 -32 -724 724 -724 724 51 79 51 79 751 -752 752 -752
-25 -19z m385 1220 c14 -40 25 -81 25 -89 0 -9 -141 -157 -313 -329 l-312
-312 -65 65 -65 65 345 345 c189 189 348 341 352 337 4 -4 19 -41 33 -82z
m-697 -1375 c-3 -3 -50 -15 -104 -26 l-98 -20 -590 590 -590 590 13 76 c7 42
17 90 23 107 l11 30 670 -670 c369 -369 668 -674 665 -677z m752 932 c-13
-131 -43 -244 -95 -354 -46 -98 -126 -221 -173 -266 l-28 -27 -119 120 -120
120 265 265 c179 179 267 260 272 252 4 -7 3 -57 -2 -110z m-1990 -177 c0 -3
-18 -25 -40 -50 -48 -54 -51 -52 -80 71 -31 131 -29 133 50 54 39 -38 70 -72
70 -75z m44 -471 c-115 -122 -232 -246 -259 -276 -45 -47 -55 -53 -91 -53 -62
0 -108 62 -87 118 5 12 123 144 262 293 l255 270 64 -65 65 -64 -209 -223z
m541 -109 c234 -234 232 -230 75 -190 -147 38 -351 142 -419 214 l-23 25 73
80 c41 45 76 81 79 81 3 0 100 -94 215 -210z"/>
</g>
</svg>
