<svg xmlns="http://www.w3.org/2000/svg" width="512" height="512" viewBox="0 0 512 512" version="1.1"><path d="M 459.500 16.244 C 455.330 17.754, 447 22.979, 447 24.086 C 447 24.589, 449.264 25, 452.032 25 C 466.335 25, 474.732 37.183, 469.053 49.693 C 467.317 53.515, 464.202 55.850, 433.824 76.103 C 415.496 88.323, 396.900 101.028, 392.500 104.336 C 388.100 107.644, 371.102 123.647, 354.727 139.897 L 324.953 169.443 336.478 180.967 L 348.003 192.492 417.522 122.996 C 463.879 76.655, 487.701 52.145, 489.021 49.434 C 493.470 40.295, 490.270 26.495, 482.291 20.409 C 475.647 15.341, 466.574 13.683, 459.500 16.244 M 209.552 103.103 C 200.769 104.028, 192.295 105.571, 187.114 107.188 L 183.727 108.245 184.336 115.373 C 184.989 123.016, 187.799 140.132, 188.519 140.852 C 188.759 141.092, 193.420 137.003, 198.876 131.766 C 212.359 118.825, 224.697 109, 227.465 109 C 228.711 109, 230.940 109.952, 232.419 111.115 C 234.592 112.824, 235.049 113.915, 234.804 116.806 C 234.547 119.832, 233.499 121.217, 228 125.797 C 218.337 133.845, 198.335 152.694, 195.468 156.453 L 192.963 159.737 196.074 168.618 C 197.785 173.503, 199.502 177.836, 199.889 178.246 C 200.276 178.657, 205.284 173.972, 211.018 167.836 C 227.808 149.868, 250.043 131.839, 271.278 118.974 C 276.106 116.049, 279.706 113.339, 279.278 112.952 C 278.073 111.861, 266.411 108.255, 257 106.064 C 241.321 102.414, 225.480 101.425, 209.552 103.103 M 160.485 116.991 C 156.093 119.110, 151.930 121.248, 151.233 121.742 C 150.224 122.456, 150.467 125.584, 152.422 137.070 C 158.651 173.669, 174.172 212.307, 194.246 241.184 L 198.197 246.867 203.348 240.815 C 211.960 230.698, 211.764 232.427, 205.434 222.397 C 187.277 193.628, 175.166 160.075, 170.458 125.500 C 169.559 118.900, 168.744 113.418, 168.647 113.318 C 168.550 113.218, 164.877 114.871, 160.485 116.991 M 289 126.110 C 262.684 140.432, 235.198 162.449, 216.557 184.140 L 206.999 195.262 208.853 198.381 C 209.873 200.096, 212.157 204.088, 213.927 207.250 C 215.698 210.412, 217.451 212.982, 217.823 212.961 C 218.196 212.939, 220.975 209.683, 224 205.724 C 230.915 196.674, 251.028 176.383, 261.324 168.068 C 270.605 160.574, 288.997 148.148, 295.389 145.054 C 299.402 143.111, 300.250 143.011, 302.705 144.187 C 304.232 144.919, 306.073 146.752, 306.795 148.259 C 308.971 152.798, 306.740 155.579, 295.330 162.549 C 282.126 170.615, 267.752 181.699, 256.500 192.493 C 251.550 197.242, 248.175 200.803, 249 200.408 C 249.825 200.013, 263.193 191.659, 278.707 181.845 C 294.220 172.030, 307.382 164, 307.954 164 C 309.487 164, 315.898 157.970, 325.215 147.764 L 333.454 138.740 328.071 133.791 C 319.734 126.125, 318.544 125.506, 315.821 127.413 C 312.498 129.740, 310.131 129.351, 304.046 125.474 C 301.047 123.563, 298.122 122.006, 297.546 122.014 C 296.971 122.022, 293.125 123.865, 289 126.110 M 127.879 138.401 C 112.441 151.709, 100.847 166.603, 91.993 184.500 C 85.165 198.302, 82.050 207.207, 78.877 222 C 75.895 235.904, 75.639 263.710, 78.367 277.464 C 83.850 305.114, 95.805 329.417, 113.737 349.373 L 117.217 353.246 127.109 343.392 C 134.124 336.403, 137 332.842, 137 331.147 C 137 321.864, 142.662 294.066, 148.206 276.126 L 151.413 265.752 149.199 262.126 C 147.981 260.132, 145.317 255.688, 143.279 252.250 C 141.241 248.813, 139.306 246, 138.979 246 C 138.280 246, 130.950 266.391, 128.015 276.500 C 126.898 280.350, 124.877 288.418, 123.526 294.430 C 122.175 300.441, 120.485 305.944, 119.771 306.658 C 119.057 307.371, 117.047 308.241, 115.303 308.589 C 112.736 309.103, 111.644 308.735, 109.566 306.657 C 108.155 305.246, 107 303.112, 107 301.916 C 107 293.609, 118.588 254.361, 126.414 236.162 L 130 227.823 126.395 219.662 C 120.819 207.038, 117 196.762, 117 194.384 C 117 190.645, 120.315 187.600, 124.385 187.600 C 126.389 187.600, 128.659 188.252, 129.430 189.050 C 130.201 189.847, 132.951 195.900, 135.541 202.500 C 144.009 224.073, 156.216 246.545, 169.765 265.500 C 173.303 270.450, 176.726 275.057, 177.372 275.737 C 178.287 276.702, 179.717 275.116, 183.860 268.538 L 189.173 260.101 184.715 253.801 C 168.038 230.231, 153.583 200.399, 145.117 172.077 C 141.738 160.774, 137 139.448, 137 135.543 C 137 134.209, 136.608 132.876, 136.129 132.579 C 135.649 132.283, 131.937 134.903, 127.879 138.401 M 358.784 202.750 C 356.792 204.813, 354.563 207.921, 353.831 209.659 C 351.738 214.627, 314.251 273.148, 306.717 283.209 C 302.987 288.191, 300.062 292.385, 300.217 292.529 C 301.613 293.820, 315.475 300.668, 323.500 304.032 C 329 306.338, 334.363 309.049, 335.417 310.056 C 337.843 312.376, 337.891 317.358, 335.512 319.987 C 331.814 324.073, 324.963 322.111, 301.713 310.306 L 288.925 303.814 284.708 307.657 C 282.388 309.771, 278.971 312.758, 277.115 314.295 C 272.977 317.722, 272.316 317.126, 291.115 326.919 C 298.636 330.836, 305.362 334.731, 306.061 335.574 C 307.905 337.795, 307.621 342.656, 305.512 344.987 C 301.611 349.297, 293.774 346.571, 270.725 332.885 L 260.543 326.839 257.521 328.614 C 255.860 329.590, 251.867 332.048, 248.649 334.077 L 242.799 337.765 247.149 340.722 C 249.542 342.348, 256 346.297, 261.500 349.499 C 272.655 355.991, 275 358.103, 275 361.656 C 275 364.884, 270.767 369, 267.446 369 C 264.550 369, 249.918 360.793, 237.782 352.362 C 233.537 349.413, 229.579 347, 228.985 347 C 228.392 347, 222.863 350.345, 216.699 354.432 C 204.286 362.664, 189.675 374.575, 180.500 383.943 C 175.626 388.920, 174.781 390.244, 176 391.003 C 178.182 392.362, 197.218 396.721, 206.322 397.947 C 269.687 406.477, 334.027 370.304, 359.613 311.765 C 363.228 303.493, 365.534 301, 369.568 301 C 372.716 301, 372.830 300.841, 374.756 293.750 L 376.725 286.500 374.384 285.032 C 371.026 282.925, 370.015 279.192, 371.231 273.394 C 372.886 265.504, 372.550 234.816, 370.702 225.083 C 368.908 215.635, 364.025 199, 363.045 199 C 362.694 199, 360.776 200.688, 358.784 202.750 M 160.160 288.679 C 156.809 301.171, 154.877 310.130, 155.275 311.324 C 155.477 311.932, 158.866 307.550, 162.804 301.587 L 169.965 290.744 166.805 286.622 C 165.066 284.355, 163.332 282.130, 162.951 281.679 C 162.570 281.227, 161.314 284.377, 160.160 288.679" stroke="none" fill="#f2bce1" fill-rule="evenodd"/><path d="M 454.500 1.765 C 448.412 3.973, 425.526 18.411, 423.476 21.337 C 420.956 24.935, 421.586 31.505, 424.795 35.097 C 427.307 37.908, 428.398 38.310, 435.545 39.059 C 439.920 39.517, 446.039 39.916, 449.143 39.946 C 453.203 39.985, 454.948 40.421, 455.362 41.502 C 455.786 42.605, 446.458 49.345, 420.219 66.896 C 400.574 80.037, 380.205 94.389, 374.956 98.789 C 369.707 103.189, 352.790 119.662, 337.364 135.395 C 321.937 151.128, 308.775 164, 308.115 164 C 307.454 164, 294.220 172.030, 278.707 181.845 C 263.193 191.659, 249.825 200.013, 249 200.408 C 248.175 200.803, 251.550 197.242, 256.500 192.493 C 267.752 181.699, 282.126 170.615, 295.330 162.549 C 306.740 155.579, 308.971 152.798, 306.795 148.259 C 306.073 146.752, 304.232 144.919, 302.705 144.187 C 300.250 143.011, 299.402 143.111, 295.389 145.054 C 288.997 148.148, 270.605 160.574, 261.324 168.068 C 251.028 176.383, 230.915 196.674, 224 205.724 C 220.975 209.683, 218.196 212.939, 217.823 212.961 C 217.451 212.982, 215.698 210.413, 213.927 207.250 C 212.157 204.088, 209.873 200.096, 208.853 198.381 L 206.999 195.262 216.557 184.140 C 235.511 162.086, 265.658 138.123, 290.616 125.276 L 297.787 121.584 303.794 125.292 C 310.459 129.406, 312.474 129.757, 315.849 127.393 C 322.062 123.042, 320.260 117.550, 310.657 111.567 C 256.579 77.872, 187.255 78.998, 134.024 114.435 C 97.986 138.426, 73.232 175.048, 63.782 218.352 C 61.857 227.171, 61.570 231.446, 61.587 251 C 61.605 270.484, 61.903 274.826, 63.811 283.395 C 70.516 313.506, 84.138 340.294, 102.900 360.267 L 106.439 364.034 58.373 412.267 C 4.258 466.571, 5.660 464.797, 5.573 479.048 C 5.532 485.607, 5.955 487.467, 8.800 493.245 C 12.760 501.288, 18.998 507.101, 26.853 510.064 C 34.802 513.062, 46.320 512.457, 53.757 508.650 C 59.876 505.518, 79.688 486.917, 81.526 482.580 C 82.353 480.626, 82.471 478.643, 81.882 476.590 C 81.066 473.744, 81.394 473.128, 86.368 468.154 C 91.227 463.294, 91.945 462.900, 93.960 463.979 C 95.185 464.634, 97.382 464.877, 98.843 464.519 C 100.519 464.108, 112.801 452.599, 132.115 433.340 L 162.730 402.813 173.937 406.436 C 198.343 414.325, 227.527 416.442, 252.178 412.111 C 304.869 402.852, 349.648 368.762, 372.663 320.384 C 375.048 315.371, 377 309.858, 377 308.134 C 377 303.995, 373.925 301, 369.674 301 C 365.522 301, 363.259 303.421, 359.613 311.765 C 341.833 352.443, 305.055 383.362, 261.299 394.416 C 243.481 398.917, 223.203 400.219, 206.322 397.947 C 197.218 396.721, 178.182 392.362, 176 391.003 C 174.781 390.244, 175.626 388.920, 180.500 383.943 C 189.675 374.575, 204.286 362.664, 216.699 354.432 C 222.863 350.345, 228.392 347, 228.985 347 C 229.579 347, 233.537 349.413, 237.782 352.362 C 249.918 360.793, 264.550 369, 267.446 369 C 270.767 369, 275 364.884, 275 361.656 C 275 358.103, 272.655 355.991, 261.500 349.499 C 256 346.297, 249.542 342.348, 247.149 340.722 L 242.799 337.765 248.649 334.077 C 251.867 332.048, 255.860 329.590, 257.521 328.614 L 260.543 326.839 270.725 332.885 C 293.774 346.571, 301.611 349.297, 305.512 344.987 C 307.621 342.656, 307.905 337.795, 306.061 335.574 C 305.362 334.731, 298.636 330.836, 291.115 326.919 C 272.316 317.126, 272.977 317.722, 277.115 314.295 C 278.971 312.758, 282.388 309.771, 284.708 307.657 L 288.925 303.814 301.713 310.306 C 324.963 322.111, 331.814 324.073, 335.512 319.987 C 337.891 317.358, 337.843 312.376, 335.417 310.056 C 334.363 309.049, 329 306.338, 323.500 304.032 C 315.475 300.668, 301.613 293.820, 300.217 292.529 C 300.062 292.385, 302.987 288.191, 306.717 283.209 C 314.267 273.126, 351.572 214.860, 354.136 209.146 C 355.713 205.633, 362.543 198.183, 363.376 199.068 C 364.471 200.231, 369.234 217.285, 370.721 225.364 C 372.635 235.768, 372.939 265.160, 371.216 273.434 C 370.094 278.827, 370.929 282.464, 373.789 284.637 C 376.483 286.683, 380.841 286.250, 383.411 283.680 C 386.805 280.285, 388.440 265.316, 387.682 244.570 C 387.012 226.237, 384.974 214.745, 379.438 198.080 L 375.702 186.835 437.801 124.667 C 505.444 56.951, 503.692 58.992, 506.153 45.020 C 508.997 28.876, 499.730 11.423, 484.273 3.814 C 478.589 1.015, 476.477 0.537, 468.602 0.265 C 461.703 0.027, 458.290 0.390, 454.500 1.765 M 459.500 16.244 C 455.330 17.754, 447 22.979, 447 24.086 C 447 24.589, 449.264 25, 452.032 25 C 466.335 25, 474.732 37.183, 469.053 49.693 C 467.317 53.515, 464.202 55.850, 433.824 76.103 C 415.496 88.323, 396.900 101.028, 392.500 104.336 C 388.100 107.644, 371.102 123.647, 354.727 139.897 L 324.953 169.443 336.478 180.967 L 348.003 192.492 417.522 122.996 C 463.879 76.655, 487.701 52.145, 489.021 49.434 C 493.470 40.295, 490.270 26.495, 482.291 20.409 C 475.647 15.341, 466.574 13.683, 459.500 16.244 M 209.552 103.103 C 200.769 104.028, 192.295 105.571, 187.114 107.188 L 183.727 108.245 184.336 115.373 C 184.989 123.016, 187.799 140.132, 188.519 140.852 C 188.759 141.092, 193.420 137.003, 198.876 131.766 C 212.359 118.825, 224.697 109, 227.465 109 C 228.711 109, 230.940 109.952, 232.419 111.115 C 234.592 112.824, 235.049 113.915, 234.804 116.806 C 234.547 119.832, 233.499 121.217, 228 125.797 C 218.337 133.845, 198.335 152.694, 195.468 156.453 L 192.963 159.737 196.074 168.618 C 197.785 173.503, 199.502 177.836, 199.889 178.246 C 200.276 178.657, 205.284 173.972, 211.018 167.836 C 227.808 149.868, 250.043 131.839, 271.278 118.974 C 276.106 116.049, 279.706 113.339, 279.278 112.952 C 278.073 111.861, 266.411 108.255, 257 106.064 C 241.321 102.414, 225.480 101.425, 209.552 103.103 M 160.485 116.991 C 156.093 119.110, 151.930 121.248, 151.233 121.742 C 150.224 122.456, 150.467 125.584, 152.422 137.070 C 158.651 173.669, 174.172 212.307, 194.246 241.184 L 198.197 246.867 203.348 240.815 C 211.960 230.698, 211.764 232.427, 205.434 222.397 C 187.277 193.628, 175.166 160.075, 170.458 125.500 C 169.559 118.900, 168.744 113.418, 168.647 113.318 C 168.550 113.218, 164.877 114.871, 160.485 116.991 M 127.879 138.401 C 112.441 151.709, 100.847 166.603, 91.993 184.500 C 85.165 198.302, 82.050 207.207, 78.877 222 C 75.895 235.904, 75.639 263.710, 78.367 277.464 C 83.850 305.114, 95.805 329.417, 113.737 349.373 L 117.217 353.246 127.109 343.392 C 134.124 336.403, 137 332.842, 137 331.147 C 137 321.864, 142.662 294.066, 148.206 276.126 L 151.413 265.752 149.199 262.126 C 147.981 260.132, 145.317 255.688, 143.279 252.250 C 141.241 248.813, 139.306 246, 138.979 246 C 138.280 246, 130.950 266.391, 128.015 276.500 C 126.898 280.350, 124.877 288.418, 123.526 294.430 C 122.175 300.441, 120.485 305.944, 119.771 306.658 C 119.057 307.371, 117.047 308.241, 115.303 308.589 C 112.736 309.103, 111.644 308.735, 109.566 306.657 C 108.155 305.246, 107 303.112, 107 301.916 C 107 293.609, 118.588 254.361, 126.414 236.162 L 130 227.823 126.395 219.662 C 120.819 207.038, 117 196.762, 117 194.384 C 117 190.645, 120.315 187.600, 124.385 187.600 C 126.389 187.600, 128.659 188.252, 129.430 189.050 C 130.201 189.847, 132.951 195.900, 135.541 202.500 C 144.009 224.073, 156.216 246.545, 169.765 265.500 C 173.303 270.450, 176.726 275.057, 177.372 275.737 C 178.287 276.702, 179.717 275.116, 183.860 268.538 L 189.173 260.101 184.715 253.801 C 168.038 230.231, 153.583 200.399, 145.117 172.077 C 141.738 160.774, 137 139.448, 137 135.543 C 137 134.209, 136.608 132.876, 136.129 132.579 C 135.649 132.283, 131.937 134.903, 127.879 138.401 M 160.160 288.679 C 156.809 301.171, 154.877 310.130, 155.275 311.324 C 155.477 311.932, 158.866 307.550, 162.804 301.587 L 169.965 290.744 166.805 286.622 C 165.066 284.355, 163.332 282.130, 162.951 281.679 C 162.570 281.227, 161.314 284.377, 160.160 288.679" stroke="none" fill="#0e0f10" fill-rule="evenodd"/></svg>